<?xml version="1.0" encoding="utf-8"?>
<!-- Generator: Adobe Illustrator 24.0.1, SVG Export Plug-In . SVG Version: 6.00 Build 0)  -->
<svg version="1.1" id="レイヤー_1" xmlns="http://www.w3.org/2000/svg" xmlns:xlink="http://www.w3.org/1999/xlink" x="0px"
	 y="0px" viewBox="0 0 320 160" style="enable-background:new 0 0 320 160;" xml:space="preserve">
<style type="text/css">
	.st0{fill:none;stroke:#0C002A;stroke-width:12;stroke-linecap:round;stroke-miterlimit:10;}
	.st1{fill-rule:evenodd;clip-rule:evenodd;fill:none;stroke:#0C002A;stroke-width:12;stroke-miterlimit:10;}
	.st2{fill:none;stroke:url(#SVGID_1_);stroke-width:16;stroke-linecap:round;}
	.st3{fill:none;stroke:url(#SVGID_2_);stroke-width:16;stroke-linecap:round;}
	.st4{fill:none;stroke:url(#SVGID_3_);stroke-width:16;stroke-linecap:round;}
	.st5{fill:none;stroke:url(#SVGID_4_);stroke-width:16;stroke-linecap:round;}
</style>
<g>
	<g>
		<path d="M42.99,137.28c-0.99,6.56-6.91,10.53-16.7,10.53H18v-8.67h8.38c3.81,0,5.79-0.77,6.59-1.86H17.2v-7.23h16.22v-1.31
			c-0.48,0-0.99,0.03-1.47,0.03H18v-7.55h13.5c1.82,0,2.46-0.51,2.46-1.54h10.66c0,2.14-0.42,3.97-1.47,5.44v4.93h3.17v7.23H42.99z"
			/>
		<path d="M65.81,144.22H62.9v-7.36h2.91c2.27,0,2.69-0.54,2.69-2.27v-0.64h-6.91l0.45,13.86H54.8l-0.51-13.86h-2.43v-7.2h2.18
			L54,125.09h7.26l0.06,1.66h14.56v5.86C75.89,141.09,73.68,144.22,65.81,144.22z"/>
		<path d="M87.76,148h-5.22v-9.28h5.5c8.96,0,12.26-2.02,12.26-7.65v-1.6H81.36v-8.83h28.41v10.11
			C109.77,142.79,101.2,148,87.76,148z"/>
		<path d="M138.99,137.28c-0.99,6.56-6.91,10.53-16.7,10.53H114v-8.67h8.38c3.81,0,5.79-0.77,6.59-1.86H113.2v-7.23h16.22v-1.31
			c-0.48,0-0.99,0.03-1.47,0.03H114v-7.55h13.5c1.82,0,2.46-0.51,2.46-1.54h10.66c0,2.14-0.42,3.97-1.47,5.44v4.93h3.17v7.23H138.99
			z"/>
		<path d="M161.81,144.22h-2.91v-7.36h2.91c2.27,0,2.69-0.54,2.69-2.27v-0.64h-6.91l0.45,13.86h-7.23l-0.51-13.86h-2.43v-7.2h2.18
			l-0.03-1.66h7.26l0.06,1.66h14.56v5.86C171.89,141.09,169.68,144.22,161.81,144.22z"/>
		<path d="M183.76,148h-5.22v-9.28h5.5c8.96,0,12.25-2.02,12.25-7.65v-1.6h-18.94v-8.83h28.41v10.11
			C205.77,142.79,197.2,148,183.76,148z"/>
		<path d="M221.71,147.71h-8v-9.15h8.13c5.89,0,7.33-1.54,7.33-6.66v-0.93h-10.72v4.64h-9.41v-14.08h9.47v-2.21h10.43v2.21h9.6
			v10.82C238.54,141.6,235.09,147.71,221.71,147.71z"/>
		<path d="M244.02,147.52v-7.17h7.97v-3.68c0-2.59-0.13-3.26-1.18-3.55h-6.56v-7.1h22.62v7.1h-7.84c0.58,0.83,0.64,1.82,0.64,3.01
			v4.22h7.36v7.17H244.02z"/>
		<path d="M301.74,128.1v2.88c0,11.97-8.54,17.02-21.95,17.02h-5.25v-9.28h5.5c8.96,0,12.22-1.82,12.22-7.46v-1.79h-18.88v-8.83
			h21.63v-1.02h7.78v3.68h-6.78v1.18h6.78v3.62H301.74z"/>
	</g>
</g>
<g>
	<g>
		<g>
			<line class="st0" x1="103" y1="17" x2="217" y2="17"/>
		</g>
		<line class="st0" x1="148.05" y1="79" x2="161.23" y2="17"/>
		<path class="st1" d="M144.95,103L144.95,103c-19.33,0-31.67-15.67-27.56-35l10.84-51h70l-10.84,51
			C183.28,87.33,164.28,103,144.95,103z"/>
	</g>
	<g>
		<g>
			<linearGradient id="SVGID_1_" gradientUnits="userSpaceOnUse" x1="97" y1="60" x2="223" y2="60">
				<stop  offset="9.205350e-08" style="stop-color:#00970C"/>
				<stop  offset="1" style="stop-color:#9100A8"/>
			</linearGradient>
			<line class="st2" x1="103" y1="17" x2="217" y2="17"/>
			<linearGradient id="SVGID_2_" gradientUnits="userSpaceOnUse" x1="97" y1="60" x2="223" y2="60">
				<stop  offset="9.205350e-08" style="stop-color:#00970C"/>
				<stop  offset="1" style="stop-color:#9100A8"/>
			</linearGradient>
			<line class="st3" x1="103" y1="17" x2="217" y2="17"/>
		</g>
		<linearGradient id="SVGID_3_" gradientUnits="userSpaceOnUse" x1="97" y1="60" x2="223" y2="60">
			<stop  offset="9.205350e-08" style="stop-color:#00970C"/>
			<stop  offset="1" style="stop-color:#9100A8"/>
		</linearGradient>
		<line class="st4" x1="148.05" y1="79" x2="161.23" y2="17"/>
		<linearGradient id="SVGID_4_" gradientUnits="userSpaceOnUse" x1="97" y1="60" x2="223" y2="60">
			<stop  offset="9.205350e-08" style="stop-color:#00970C"/>
			<stop  offset="1" style="stop-color:#9100A8"/>
		</linearGradient>
		<path class="st5" d="M144.95,103L144.95,103c-19.33,0-31.67-15.67-27.56-35l10.84-51h70l-10.84,51
			C183.28,87.33,164.28,103,144.95,103z"/>
	</g>
</g>
</svg>
